<?xml version="1.0" encoding="utf-8" standalone="no"?>
<!DOCTYPE svg PUBLIC "-//W3C//DTD SVG 1.1//EN"
  "http://www.w3.org/Graphics/SVG/1.1/DTD/svg11.dtd">
<svg height="345.6pt" version="1.1" viewBox="0 0 460.8 345.6" width="460.8pt" xmlns="http://www.w3.org/2000/svg" xmlns:xlink="http://www.w3.org/1999/xlink">
 <metadata>
  <rdf:RDF xmlns:cc="http://creativecommons.org/ns#" xmlns:dc="http://purl.org/dc/elements/1.1/" xmlns:rdf="http://www.w3.org/1999/02/22-rdf-syntax-ns#">
   <cc:Work>
    <dc:type rdf:resource="http://purl.org/dc/dcmitype/StillImage"/>
    <dc:date>2021-10-19T13:45:56.329605</dc:date>
    <dc:format>image/svg+xml</dc:format>
    <dc:creator>
     <cc:Agent>
      <dc:title>Matplotlib v3.4.3, https://matplotlib.org/</dc:title>
     </cc:Agent>
    </dc:creator>
   </cc:Work>
  </rdf:RDF>
 </metadata>
 <defs>
  <style type="text/css">*{stroke-linecap:butt;stroke-linejoin:round;}</style>
 </defs>
 <g id="figure_1">
  <g id="patch_1">
   <path d="M 0 345.6 
L 460.8 345.6 
L 460.8 0 
L 0 0 
z
" style="fill:#ffffff;"/>
  </g>
  <g id="axes_1">
   <g id="patch_2">
    <path clip-path="url(#p21c4d79a6e)" d="M 42.450918 181.105328 
Q 49.415114 204.577928 56.061297 226.978675 
" style="fill:none;stroke:#000000;stroke-linecap:round;"/>
    <path clip-path="url(#p21c4d79a6e)" d="M 56.840927 222.57502 
L 56.061297 226.978675 
L 53.006151 223.712778 
L 56.840927 222.57502 
z
" style="stroke:#000000;stroke-linecap:round;"/>
   </g>
   <g id="patch_3">
    <path clip-path="url(#p21c4d79a6e)" d="M 65.077226 242.369685 
Q 85.262275 261.841313 104.642663 280.536719 
" style="fill:none;stroke:#000000;stroke-linecap:round;"/>
    <path clip-path="url(#p21c4d79a6e)" d="M 103.152366 276.320203 
L 104.642663 280.536719 
L 100.375271 279.199047 
L 103.152366 276.320203 
z
" style="stroke:#000000;stroke-linecap:round;"/>
   </g>
   <g id="patch_4">
    <path clip-path="url(#p21c4d79a6e)" d="M 67.505728 236.356398 
Q 230.402171 236.356398 392.18058 236.356398 
" style="fill:none;stroke:#000000;stroke-linecap:round;"/>
    <path clip-path="url(#p21c4d79a6e)" d="M 388.18058 234.356398 
L 392.18058 236.356398 
L 388.18058 238.356398 
L 388.18058 234.356398 
z
" style="stroke:#000000;stroke-linecap:round;"/>
   </g>
   <g id="patch_5">
    <path clip-path="url(#p21c4d79a6e)" d="M 66.225007 231.828015 
Q 203.981038 147.316555 340.784079 63.38974 
" style="fill:none;stroke:#000000;stroke-linecap:round;"/>
    <path clip-path="url(#p21c4d79a6e)" d="M 336.328713 63.776675 
L 340.784079 63.38974 
L 338.420407 67.186193 
L 336.328713 63.776675 
z
" style="stroke:#000000;stroke-linecap:round;"/>
   </g>
   <g id="patch_6">
    <path clip-path="url(#p21c4d79a6e)" d="M 196.689964 315.609917 
Q 230.400285 315.609917 262.992572 315.609917 
" style="fill:none;stroke:#000000;stroke-linecap:round;"/>
    <path clip-path="url(#p21c4d79a6e)" d="M 258.992572 313.609917 
L 262.992572 315.609917 
L 258.992572 317.609917 
L 258.992572 313.609917 
z
" style="stroke:#000000;stroke-linecap:round;"/>
   </g>
   <g id="patch_7">
    <path clip-path="url(#p21c4d79a6e)" d="M 340.594388 285.827542 
Q 203.985934 261.841178 68.478669 238.048166 
" style="fill:none;stroke:#000000;stroke-linecap:round;"/>
    <path clip-path="url(#p21c4d79a6e)" d="M 72.072521 240.709788 
L 68.478669 238.048166 
L 72.764277 236.770058 
L 72.072521 240.709788 
z
" style="stroke:#000000;stroke-linecap:round;"/>
   </g>
   <g id="patch_8">
    <path clip-path="url(#p21c4d79a6e)" d="M 418.349083 164.494672 
Q 411.384892 141.022083 404.738713 118.621347 
" style="fill:none;stroke:#000000;stroke-linecap:round;"/>
    <path clip-path="url(#p21c4d79a6e)" d="M 403.959083 123.025002 
L 404.738713 118.621347 
L 407.793859 121.887245 
L 403.959083 123.025002 
z
" style="stroke:#000000;stroke-linecap:round;"/>
   </g>
   <g id="patch_9">
    <path clip-path="url(#p21c4d79a6e)" d="M 414.580789 166.787825 
Q 346.792858 101.395807 279.809589 36.780011 
" style="fill:none;stroke:#000000;stroke-linecap:round;"/>
    <path clip-path="url(#p21c4d79a6e)" d="M 281.299886 40.996528 
L 279.809589 36.780011 
L 284.076981 38.117683 
L 281.299886 40.996528 
z
" style="stroke:#000000;stroke-linecap:round;"/>
   </g>
   <g id="patch_10">
    <path clip-path="url(#p21c4d79a6e)" d="M 413.428604 168.269618 
Q 304.420914 101.39492 196.366213 35.104869 
" style="fill:none;stroke:#000000;stroke-linecap:round;"/>
    <path clip-path="url(#p21c4d79a6e)" d="M 198.729886 38.901321 
L 196.366213 35.104869 
L 200.821579 35.491802 
L 198.729886 38.901321 
z
" style="stroke:#000000;stroke-linecap:round;"/>
   </g>
   <g id="patch_11">
    <path clip-path="url(#p21c4d79a6e)" d="M 119.799674 61.28365 
Q 266.24385 115.536746 411.639624 169.40144 
" style="fill:none;stroke:#000000;stroke-linecap:round;"/>
    <path clip-path="url(#p21c4d79a6e)" d="M 408.583542 166.136419 
L 411.639624 169.40144 
L 407.193958 169.887293 
L 408.583542 166.136419 
z
" style="stroke:#000000;stroke-linecap:round;"/>
   </g>
   <g id="patch_12">
    <path clip-path="url(#p21c4d79a6e)" d="M 63.438527 116.58368 
Q 123.436312 212.426706 182.840859 307.322067 
" style="fill:none;stroke:#000000;stroke-linecap:round;"/>
    <path clip-path="url(#p21c4d79a6e)" d="M 182.413658 302.870382 
L 182.840859 307.322067 
L 179.023191 304.992817 
L 182.413658 302.870382 
z
" style="stroke:#000000;stroke-linecap:round;"/>
   </g>
   <g id="PathCollection_1">
    <defs>
     <path d="M 0 8.660254 
C 2.296726 8.660254 4.499694 7.747755 6.123724 6.123724 
C 7.747755 4.499694 8.660254 2.296726 8.660254 0 
C 8.660254 -2.296726 7.747755 -4.499694 6.123724 -6.123724 
C 4.499694 -7.747755 2.296726 -8.660254 0 -8.660254 
C -2.296726 -8.660254 -4.499694 -7.747755 -6.123724 -6.123724 
C -7.747755 -4.499694 -8.660254 -2.296726 -8.660254 0 
C -8.660254 2.296726 -7.747755 4.499694 -6.123724 6.123724 
C -4.499694 7.747755 -2.296726 8.660254 0 8.660254 
z
" id="m37ef932505" style="stroke:#1f78b4;"/>
    </defs>
    <g clip-path="url(#p21c4d79a6e)">
     <use style="fill:#1f78b4;stroke:#1f78b4;" x="39.986777" xlink:href="#m37ef932505" y="172.800017"/>
     <use style="fill:#1f78b4;stroke:#1f78b4;" x="58.843617" xlink:href="#m37ef932505" y="236.356398"/>
     <use style="fill:#1f78b4;stroke:#1f78b4;" x="111.679332" xlink:href="#m37ef932505" y="287.324684"/>
     <use style="fill:#1f78b4;stroke:#1f78b4;" x="188.029058" xlink:href="#m37ef932505" y="315.609917"/>
     <use style="fill:#1f78b4;stroke:#1f78b4;" x="272.770948" xlink:href="#m37ef932505" y="315.609917"/>
     <use style="fill:#1f78b4;stroke:#1f78b4;" x="349.120747" xlink:href="#m37ef932505" y="287.324641"/>
     <use style="fill:#1f78b4;stroke:#1f78b4;" x="401.956383" xlink:href="#m37ef932505" y="236.356398"/>
     <use style="fill:#1f78b4;stroke:#1f78b4;" x="420.813223" xlink:href="#m37ef932505" y="172.799979"/>
     <use style="fill:#1f78b4;stroke:#1f78b4;" x="401.956394" xlink:href="#m37ef932505" y="109.243628"/>
     <use style="fill:#1f78b4;stroke:#1f78b4;" x="349.120691" xlink:href="#m37ef932505" y="58.275342"/>
     <use style="fill:#1f78b4;stroke:#1f78b4;" x="272.770883" xlink:href="#m37ef932505" y="29.990083"/>
     <use style="fill:#1f78b4;stroke:#1f78b4;" x="188.028993" xlink:href="#m37ef932505" y="29.9901"/>
     <use style="fill:#1f78b4;stroke:#1f78b4;" x="111.679344" xlink:href="#m37ef932505" y="58.275316"/>
     <use style="fill:#1f78b4;stroke:#1f78b4;" x="58.843629" xlink:href="#m37ef932505" y="109.243593"/>
    </g>
   </g>
   <g id="text_1">
    <g clip-path="url(#p21c4d79a6e)">
     <!-- 1a -->
     <g transform="translate(32.492402 176.111267)scale(0.12 -0.12)">
      <defs>
       <path d="M 794 531 
L 1825 531 
L 1825 4091 
L 703 3866 
L 703 4441 
L 1819 4666 
L 2450 4666 
L 2450 531 
L 3481 531 
L 3481 0 
L 794 0 
L 794 531 
z
" id="DejaVuSans-31" transform="scale(0.015625)"/>
       <path d="M 2194 1759 
Q 1497 1759 1228 1600 
Q 959 1441 959 1056 
Q 959 750 1161 570 
Q 1363 391 1709 391 
Q 2188 391 2477 730 
Q 2766 1069 2766 1631 
L 2766 1759 
L 2194 1759 
z
M 3341 1997 
L 3341 0 
L 2766 0 
L 2766 531 
Q 2569 213 2275 61 
Q 1981 -91 1556 -91 
Q 1019 -91 701 211 
Q 384 513 384 1019 
Q 384 1609 779 1909 
Q 1175 2209 1959 2209 
L 2766 2209 
L 2766 2266 
Q 2766 2663 2505 2880 
Q 2244 3097 1772 3097 
Q 1472 3097 1187 3025 
Q 903 2953 641 2809 
L 641 3341 
Q 956 3463 1253 3523 
Q 1550 3584 1831 3584 
Q 2591 3584 2966 3190 
Q 3341 2797 3341 1997 
z
" id="DejaVuSans-61" transform="scale(0.015625)"/>
      </defs>
      <use xlink:href="#DejaVuSans-31"/>
      <use x="63.623047" xlink:href="#DejaVuSans-61"/>
     </g>
    </g>
   </g>
   <g id="text_2">
    <g clip-path="url(#p21c4d79a6e)">
     <!-- A -->
     <g transform="translate(54.739242 239.667648)scale(0.12 -0.12)">
      <defs>
       <path d="M 2188 4044 
L 1331 1722 
L 3047 1722 
L 2188 4044 
z
M 1831 4666 
L 2547 4666 
L 4325 0 
L 3669 0 
L 3244 1197 
L 1141 1197 
L 716 0 
L 50 0 
L 1831 4666 
z
" id="DejaVuSans-41" transform="scale(0.015625)"/>
      </defs>
      <use xlink:href="#DejaVuSans-41"/>
     </g>
    </g>
   </g>
   <g id="text_3">
    <g clip-path="url(#p21c4d79a6e)">
     <!-- 0A -->
     <g transform="translate(103.757457 290.635934)scale(0.12 -0.12)">
      <defs>
       <path d="M 2034 4250 
Q 1547 4250 1301 3770 
Q 1056 3291 1056 2328 
Q 1056 1369 1301 889 
Q 1547 409 2034 409 
Q 2525 409 2770 889 
Q 3016 1369 3016 2328 
Q 3016 3291 2770 3770 
Q 2525 4250 2034 4250 
z
M 2034 4750 
Q 2819 4750 3233 4129 
Q 3647 3509 3647 2328 
Q 3647 1150 3233 529 
Q 2819 -91 2034 -91 
Q 1250 -91 836 529 
Q 422 1150 422 2328 
Q 422 3509 836 4129 
Q 1250 4750 2034 4750 
z
" id="DejaVuSans-30" transform="scale(0.015625)"/>
      </defs>
      <use xlink:href="#DejaVuSans-30"/>
      <use x="63.623047" xlink:href="#DejaVuSans-41"/>
     </g>
    </g>
   </g>
   <g id="text_4">
    <g clip-path="url(#p21c4d79a6e)">
     <!-- 2B' -->
     <g transform="translate(178.445933 318.921167)scale(0.12 -0.12)">
      <defs>
       <path d="M 1228 531 
L 3431 531 
L 3431 0 
L 469 0 
L 469 531 
Q 828 903 1448 1529 
Q 2069 2156 2228 2338 
Q 2531 2678 2651 2914 
Q 2772 3150 2772 3378 
Q 2772 3750 2511 3984 
Q 2250 4219 1831 4219 
Q 1534 4219 1204 4116 
Q 875 4013 500 3803 
L 500 4441 
Q 881 4594 1212 4672 
Q 1544 4750 1819 4750 
Q 2544 4750 2975 4387 
Q 3406 4025 3406 3419 
Q 3406 3131 3298 2873 
Q 3191 2616 2906 2266 
Q 2828 2175 2409 1742 
Q 1991 1309 1228 531 
z
" id="DejaVuSans-32" transform="scale(0.015625)"/>
       <path d="M 1259 2228 
L 1259 519 
L 2272 519 
Q 2781 519 3026 730 
Q 3272 941 3272 1375 
Q 3272 1813 3026 2020 
Q 2781 2228 2272 2228 
L 1259 2228 
z
M 1259 4147 
L 1259 2741 
L 2194 2741 
Q 2656 2741 2882 2914 
Q 3109 3088 3109 3444 
Q 3109 3797 2882 3972 
Q 2656 4147 2194 4147 
L 1259 4147 
z
M 628 4666 
L 2241 4666 
Q 2963 4666 3353 4366 
Q 3744 4066 3744 3513 
Q 3744 3084 3544 2831 
Q 3344 2578 2956 2516 
Q 3422 2416 3680 2098 
Q 3938 1781 3938 1306 
Q 3938 681 3513 340 
Q 3088 0 2303 0 
L 628 0 
L 628 4666 
z
" id="DejaVuSans-42" transform="scale(0.015625)"/>
       <path d="M 1147 4666 
L 1147 2931 
L 616 2931 
L 616 4666 
L 1147 4666 
z
" id="DejaVuSans-27" transform="scale(0.015625)"/>
      </defs>
      <use xlink:href="#DejaVuSans-32"/>
      <use x="63.623047" xlink:href="#DejaVuSans-42"/>
      <use x="132.226562" xlink:href="#DejaVuSans-27"/>
     </g>
    </g>
   </g>
   <g id="text_5">
    <g clip-path="url(#p21c4d79a6e)">
     <!-- 2B'' -->
     <g transform="translate(261.53876 318.921167)scale(0.12 -0.12)">
      <use xlink:href="#DejaVuSans-32"/>
      <use x="63.623047" xlink:href="#DejaVuSans-42"/>
      <use x="132.226562" xlink:href="#DejaVuSans-27"/>
      <use x="159.716797" xlink:href="#DejaVuSans-27"/>
     </g>
    </g>
   </g>
   <g id="text_6">
    <g clip-path="url(#p21c4d79a6e)">
     <!-- 0a -->
     <g transform="translate(341.626372 290.635891)scale(0.12 -0.12)">
      <use xlink:href="#DejaVuSans-30"/>
      <use x="63.623047" xlink:href="#DejaVuSans-61"/>
     </g>
    </g>
   </g>
   <g id="text_7">
    <g clip-path="url(#p21c4d79a6e)">
     <!-- 1A -->
     <g transform="translate(394.034508 239.667648)scale(0.12 -0.12)">
      <use xlink:href="#DejaVuSans-31"/>
      <use x="63.623047" xlink:href="#DejaVuSans-41"/>
     </g>
    </g>
   </g>
   <g id="text_8">
    <g clip-path="url(#p21c4d79a6e)">
     <!-- A' -->
     <g transform="translate(415.059786 176.111229)scale(0.12 -0.12)">
      <use xlink:href="#DejaVuSans-41"/>
      <use x="68.408203" xlink:href="#DejaVuSans-27"/>
     </g>
    </g>
   </g>
   <g id="text_9">
    <g clip-path="url(#p21c4d79a6e)">
     <!-- 0A' -->
     <g transform="translate(392.385456 112.554878)scale(0.12 -0.12)">
      <use xlink:href="#DejaVuSans-30"/>
      <use x="63.623047" xlink:href="#DejaVuSans-41"/>
      <use x="132.03125" xlink:href="#DejaVuSans-27"/>
     </g>
    </g>
   </g>
   <g id="text_10">
    <g clip-path="url(#p21c4d79a6e)">
     <!-- 2A -->
     <g transform="translate(341.198816 61.586592)scale(0.12 -0.12)">
      <use xlink:href="#DejaVuSans-32"/>
      <use x="63.623047" xlink:href="#DejaVuSans-41"/>
     </g>
    </g>
   </g>
   <g id="text_11">
    <g clip-path="url(#p21c4d79a6e)">
     <!-- 1A' -->
     <g transform="translate(263.199945 33.301333)scale(0.12 -0.12)">
      <use xlink:href="#DejaVuSans-31"/>
      <use x="63.623047" xlink:href="#DejaVuSans-41"/>
      <use x="132.03125" xlink:href="#DejaVuSans-27"/>
     </g>
    </g>
   </g>
   <g id="text_12">
    <g clip-path="url(#p21c4d79a6e)">
     <!-- 2A' -->
     <g transform="translate(178.458055 33.30135)scale(0.12 -0.12)">
      <use xlink:href="#DejaVuSans-32"/>
      <use x="63.623047" xlink:href="#DejaVuSans-41"/>
      <use x="132.03125" xlink:href="#DejaVuSans-27"/>
     </g>
    </g>
   </g>
   <g id="text_13">
    <g clip-path="url(#p21c4d79a6e)">
     <!-- 2a -->
     <g transform="translate(104.184969 61.586566)scale(0.12 -0.12)">
      <use xlink:href="#DejaVuSans-32"/>
      <use x="63.623047" xlink:href="#DejaVuSans-61"/>
     </g>
    </g>
   </g>
   <g id="text_14">
    <g clip-path="url(#p21c4d79a6e)">
     <!-- 2B -->
     <g transform="translate(50.909566 112.554843)scale(0.12 -0.12)">
      <use xlink:href="#DejaVuSans-32"/>
      <use x="63.623047" xlink:href="#DejaVuSans-42"/>
     </g>
    </g>
   </g>
  </g>
 </g>
 <defs>
  <clipPath id="p21c4d79a6e">
   <rect height="345.6" width="460.8" x="0" y="0"/>
  </clipPath>
 </defs>
</svg>
